<mxfile host="app.diagrams.net" modified="2023-06-28T21:31:35.833Z" agent="Mozilla/5.0 (Windows NT 10.0; Win64; x64) AppleWebKit/537.36 (KHTML, like Gecko) Chrome/114.0.0.0 Safari/537.36" etag="wQW3ZXxpULi-uq4Qm_6f" version="21.5.2" type="device">
  <diagram name="Page-1" id="qq-BbbrW7bb7Fand_kki">
    <mxGraphModel dx="1194" dy="734" grid="1" gridSize="10" guides="1" tooltips="1" connect="1" arrows="1" fold="1" page="1" pageScale="1" pageWidth="850" pageHeight="1100" math="0" shadow="0">
      <root>
        <mxCell id="0" />
        <mxCell id="1" parent="0" />
        <mxCell id="rcZHae2VlHNQ3YqspdNf-1" value="" style="rounded=0;whiteSpace=wrap;html=1;" vertex="1" parent="1">
          <mxGeometry x="280" y="160" width="160" height="400" as="geometry" />
        </mxCell>
        <mxCell id="rcZHae2VlHNQ3YqspdNf-2" value="&lt;b&gt;&lt;font style=&quot;font-size: 14px;&quot;&gt;Flash size = 64 KB&amp;nbsp;&lt;br&gt;64 Pages&lt;br&gt;&lt;/font&gt;&lt;/b&gt;" style="text;html=1;align=center;verticalAlign=middle;resizable=0;points=[];autosize=1;strokeColor=none;fillColor=none;" vertex="1" parent="1">
          <mxGeometry x="285" y="110" width="150" height="50" as="geometry" />
        </mxCell>
        <mxCell id="rcZHae2VlHNQ3YqspdNf-3" value="&lt;font style=&quot;font-size: 14px;&quot;&gt;&lt;b&gt;BL&lt;br&gt;20 KB&lt;br&gt;Pages: 0 -&amp;gt; 19&lt;br&gt;&lt;/b&gt;&lt;/font&gt;" style="rounded=0;whiteSpace=wrap;html=1;strokeWidth=2;fillColor=#dae8fc;strokeColor=#6c8ebf;" vertex="1" parent="1">
          <mxGeometry x="280" y="160" width="160" height="120" as="geometry" />
        </mxCell>
        <mxCell id="rcZHae2VlHNQ3YqspdNf-4" value="" style="endArrow=classic;html=1;rounded=0;" edge="1" parent="1">
          <mxGeometry width="50" height="50" relative="1" as="geometry">
            <mxPoint x="450" y="159" as="sourcePoint" />
            <mxPoint x="480" y="160" as="targetPoint" />
          </mxGeometry>
        </mxCell>
        <mxCell id="rcZHae2VlHNQ3YqspdNf-5" value="0x08000000" style="text;html=1;align=center;verticalAlign=middle;resizable=0;points=[];autosize=1;strokeColor=none;fillColor=none;" vertex="1" parent="1">
          <mxGeometry x="477" y="146" width="90" height="30" as="geometry" />
        </mxCell>
        <mxCell id="rcZHae2VlHNQ3YqspdNf-6" value="" style="endArrow=classic;html=1;rounded=0;" edge="1" parent="1">
          <mxGeometry width="50" height="50" relative="1" as="geometry">
            <mxPoint x="450" y="278" as="sourcePoint" />
            <mxPoint x="480" y="279" as="targetPoint" />
          </mxGeometry>
        </mxCell>
        <mxCell id="rcZHae2VlHNQ3YqspdNf-7" value="0x08005000" style="text;html=1;align=center;verticalAlign=middle;resizable=0;points=[];autosize=1;strokeColor=none;fillColor=none;" vertex="1" parent="1">
          <mxGeometry x="477" y="265" width="90" height="30" as="geometry" />
        </mxCell>
        <mxCell id="rcZHae2VlHNQ3YqspdNf-8" value="&lt;font style=&quot;font-size: 14px;&quot;&gt;&lt;b&gt;APP 1&lt;br&gt;22 KB&lt;br&gt;Pages: 20 -&amp;gt; 41&amp;nbsp;&lt;br&gt;&lt;/b&gt;&lt;/font&gt;" style="rounded=0;whiteSpace=wrap;html=1;strokeWidth=2;fillColor=#fff2cc;strokeColor=#d6b656;" vertex="1" parent="1">
          <mxGeometry x="280" y="280" width="160" height="140" as="geometry" />
        </mxCell>
        <mxCell id="rcZHae2VlHNQ3YqspdNf-9" value="&lt;font style=&quot;font-size: 14px;&quot;&gt;&lt;b&gt;APP 2&lt;br&gt;22 KB&lt;br&gt;Pages: 42 -&amp;gt; 63&amp;nbsp;&lt;br&gt;&lt;/b&gt;&lt;/font&gt;" style="rounded=0;whiteSpace=wrap;html=1;strokeWidth=2;fillColor=#d5e8d4;strokeColor=#82b366;" vertex="1" parent="1">
          <mxGeometry x="280" y="420" width="160" height="140" as="geometry" />
        </mxCell>
        <mxCell id="rcZHae2VlHNQ3YqspdNf-12" value="" style="endArrow=classic;html=1;rounded=0;" edge="1" parent="1">
          <mxGeometry width="50" height="50" relative="1" as="geometry">
            <mxPoint x="448" y="419" as="sourcePoint" />
            <mxPoint x="478" y="420" as="targetPoint" />
          </mxGeometry>
        </mxCell>
        <mxCell id="rcZHae2VlHNQ3YqspdNf-13" value="0x0800A800" style="text;html=1;align=center;verticalAlign=middle;resizable=0;points=[];autosize=1;strokeColor=none;fillColor=none;" vertex="1" parent="1">
          <mxGeometry x="475" y="406" width="90" height="30" as="geometry" />
        </mxCell>
      </root>
    </mxGraphModel>
  </diagram>
</mxfile>
